<?xml version="1.0" encoding="utf-8"?><svg xml:space="preserve" viewBox="0 0 100 100" y="0" x="0" xmlns="http://www.w3.org/2000/svg" id="圖層_1" version="1.1" width="200px" height="200px" xmlns:xlink="http://www.w3.org/1999/xlink" style="width:100%;height:100%;background-size:initial;background-repeat-y:initial;background-repeat-x:initial;background-position-y:initial;background-position-x:initial;background-origin:initial;background-color:initial;background-clip:initial;background-attachment:initial;animation-play-state:paused" ><g class="ldl-scale" style="transform-origin:50% 50%;transform:rotate(0deg) scale(0.8, 0.8);animation-play-state:paused" ><path fill="#abbd81" d="M50 13.353c-24.064 0-40 11.146-40 34.452 0 9.677 2.755 17.251 7.691 22.808-1.155 5.485-2.723 10.562-4.381 13.492-.725 1.281.459 2.871 1.879 2.484l.044-.012c4.011-1.133 9.002-4.158 13.906-7.998 5.886 2.459 12.928 3.678 20.861 3.678 24.064 0 40-11.146 40-34.452 0-23.306-15.936-34.452-40-34.452z" style="fill:rgb(79, 70, 229);animation-play-state:paused" ></path>
<path fill="#f5e6c8" d="M41.899 38.678l1.399-1.399a4.466 4.466 0 0 0 0-6.314l-2.158-2.158a4.464 4.464 0 0 0-6.314 0l-1.079 1.079-2.418 2.418a6.269 6.269 0 0 0-.945 7.637c6.875 11.574 16.1 20.799 27.674 27.674a6.27 6.27 0 0 0 7.637-.945l2.418-2.418 1.079-1.079a4.466 4.466 0 0 0 0-6.314l-2.158-2.158a4.466 4.466 0 0 0-6.314 0L59.321 56.1a1.93 1.93 0 0 1-2.575.146 100.736 100.736 0 0 1-14.994-14.994 1.93 1.93 0 0 1 .147-2.574z" style="fill:rgb(255, 255, 255);animation-play-state:paused" ></path>
<metadata xmlns:d="https://loading.io/stock/" style="animation-play-state:paused" ><d:name style="animation-play-state:paused" >message</d:name>
<d:tags style="animation-play-state:paused" >sms,text,type,mail,phone,bubble,message,communication</d:tags>
<d:license style="animation-play-state:paused" >by</d:license>
<d:slug style="animation-play-state:paused" >w01cr5</d:slug></metadata></g><!-- generated by https://loading.io/ --></svg>