
<svg xmlns="http://www.w3.org/2000/svg" viewBox="0 0 48 48"><path d="M 24.009766 5 A 2.0002 2.0002 0 0 0 22.132812 6.2851562 L 9.1328125 40.285156 A 2.0002 2.0002 0 1 0 12.867188 41.714844 L 15.435547 35 L 32.564453 35 L 35.132812 41.714844 A 2.0002 2.0002 0 1 0 38.867188 40.285156 L 25.867188 6.2851562 A 2.0002 2.0002 0 0 0 24.009766 5 z M 38.970703 5.9726562 A 2.0002 2.0002 0 0 0 37 8 L 37 11 L 34 11 A 2.0002 2.0002 0 1 0 34 15 L 37 15 L 37 18 A 2.0002 2.0002 0 1 0 41 18 L 41 15 L 44 15 A 2.0002 2.0002 0 1 0 44 11 L 41 11 L 41 8 A 2.0002 2.0002 0 0 0 38.970703 5.9726562 z M 24 12.597656 L 31.035156 31 L 16.964844 31 L 24 12.597656 z"></path></svg>