<svg xmlns="http://www.w3.org/2000/svg" viewBox="0 0 26 26" fill="white"><path d="M 23 6 L 3 6 C 1.34375 6 0 7.34375 0 9 L 0 19 C 0 20.65625 1.34375 22 3 22 L 23 22 C 24.65625 22 26 20.65625 26 19 L 26 9 C 26 7.34375 24.65625 6 23 6 Z M 20 11 L 18 11 L 18 9 L 20 9 Z M 23 11 L 21 11 L 21 9 L 23 9 Z M 14 11 L 12 11 L 12 9 L 14 9 Z M 17 11 L 15 11 L 15 9 L 17 9 Z M 11 11 L 9 11 L 9 9 L 11 9 Z M 5 11 L 3 11 L 3 9 L 5 9 Z M 8 11 L 6 11 L 6 9 L 8 9 Z M 20 19 L 6 19 L 6 17 L 20 17 Z M 21 15 L 19 15 L 19 13 L 21 13 Z M 15 15 L 13 15 L 13 13 L 15 13 Z M 18 15 L 16 15 L 16 13 L 18 13 Z M 12 15 L 10 15 L 10 13 L 12 13 Z M 6 15 L 4 15 L 4 13 L 6 13 Z M 9 15 L 7 15 L 7 13 L 9 13 Z"></path></svg>