<svg fill="white" xmlns="http://www.w3.org/2000/svg" viewBox="0 0 30 30"><path d="M 4 3 C 2.895 3 2 3.895 2 5 L 2 8 L 2 23 C 2 24.105 2.895 25 4 25 L 5.28125 25 C 5.630903 25.592739 6.2711814 26 7 26 L 10 26 C 10.728819 26 11.369097 25.592739 11.71875 25 L 18.28125 25 C 18.630903 25.592739 19.271181 26 20 26 L 23 26 C 23.728819 26 24.369097 25.592739 24.71875 25 L 26 25 C 27.105 25 28 24.105 28 23 L 28 7 C 28 5.895 27.105 5 26 5 L 11.199219 5 L 10.582031 3.9707031 C 10.221031 3.3687031 9.5701875 3 8.8671875 3 L 4 3 z M 8 16 L 22 16 C 22.56503 16 23 16.43497 23 17 L 23 24 L 20 24 L 20 20 A 1.0001 1.0001 0 0 0 19 19 L 11 19 A 1.0001 1.0001 0 0 0 10 20 L 10 24 L 7 24 L 7 17 C 7 16.43497 7.4349698 16 8 16 z"></path></svg>